<?xml version="1.0" encoding="utf-8"?>
<svg width="139px" height="25px" viewBox="201 237 145 25" xmlns="http://www.w3.org/2000/svg">
  <defs>
    <polygon id="path-1" points="21.086627 0.217063492 7.41429625e-05 0.217063492 7.41429626e-05 24.6029762 21.086627 24.6029762"/>
    <style id="bx-google-fonts">@import url(https://fonts.googleapis.com/css?family=Poppins:300,400,500,600,700);</style>
  </defs>
  <title>logo</title>
  <desc>Created with Sketch.</desc>
  <g id="icon書き出し" stroke="none" stroke-width="1" fill="none" fill-rule="evenodd" transform="matrix(1, 0, 0, 1, 201.529129, 237.410873)">
    <g id="logo">
      <g id="Page-1">
        <g id="Group-3" transform="translate(0.000000, 0.179802)">
          <mask id="mask-2" fill="white">
            <polygon id="" points="21.086627 0.217063492 7.41429625e-05 0.217063492 7.41429626e-05 24.6029762 21.086627 24.6029762" transform="matrix(1, 0, 0, 1, 0, 0)"/>
          </mask>
          <g id="Clip-2"/>
          <path d="M18.5648016,22.0811508 L2.5275,22.0811508 C2.5275,22.0811508 2.52829365,8.27043651 2.52948413,7.43234127 C2.52988095,7.27519841 2.58742063,7.07956349 2.69019841,6.96686508 C3.91202381,5.61646825 5.15488095,4.26130952 6.39535714,2.92797619 C6.49218254,2.82361111 6.66638889,2.7343254 6.80448413,2.73392857 C8.22948413,2.72996032 18.5648016,2.73392857 18.5648016,2.73392857 L18.5648016,22.0811508 Z M19.8259127,0.216865079 C19.8259127,0.216865079 8.11202381,0.22202381 6.17035714,0.216865079 C5.65884921,0.215674603 5.2743254,0.387896825 4.93503968,0.760119048 C3.46599206,2.37281746 2.00369048,3.97480159 0.51797619,5.57242063 C0.16202381,5.95575397 -0.00305555556,6.37599206 0.000119047619,6.89940476 C0.00408730159,7.46210317 0.00488095238,23.3422619 0.00488095238,23.3422619 C0.00488095238,24.0359127 0.572738095,24.6029762 1.26638889,24.6029762 L19.8259127,24.6029762 C20.5195635,24.6029762 21.086627,24.0359127 21.086627,23.3422619 L21.086627,1.47837302 C21.086627,0.784722222 20.5195635,0.216865079 19.8259127,0.216865079 L19.8259127,0.216865079 Z" id="Fill-1" mask="url(#mask-2)" style="fill: rgb(0, 123, 255);"/>
        </g>
        <path d="M9.02007937,4.5468254 C8.38753968,4.5468254 7.8752381,5.05952381 7.8752381,5.69126984 L7.8752381,7.75595238 C7.8752381,7.9234127 7.73912698,8.05952381 7.57206349,8.05952381 L5.50698413,8.05952381 C4.8752381,8.05952381 4.36293651,8.5718254 4.36293651,9.20396825 C4.36293651,9.83611111 4.8752381,10.3488095 5.50698413,10.3488095 L5.50738095,10.3488095 L9.02007937,10.3488095 C9.65222222,10.3488095 10.1649206,9.83611111 10.1649206,9.20396825 L10.1649206,5.69126984 C10.1649206,5.05952381 9.65222222,4.5468254 9.02007937,4.5468254" id="Fill-4" style="fill: rgb(0, 123, 255);"/>
      </g>
    </g>
  </g>
  <text x="228.01" y="229.202" transform="matrix(1, 0, 0, 0.999999, 2.772557, 28.499512)" style="font-family: Poppins; font-size: 25px; font-weight: 600; letter-spacing: 2px; white-space: pre;">clonote</text>
</svg>